<svg width="349" height="392" viewBox="0 0 349 392" fill="none" xmlns="http://www.w3.org/2000/svg">
<path d="M167.5 357.5C250.971 357.5 321.5 297.203 321.5 219.5C321.5 141.797 250.971 81.5 167.5 81.5C84.0286 81.5 13.5 141.797 13.5 219.5C13.5 297.203 84.0286 357.5 167.5 357.5Z" fill="#60AFFF" stroke="#424B54" stroke-width="27"/>
<path d="M134.5 222C134.5 237.748 121.956 250.5 106.5 250.5C91.0442 250.5 78.5 237.748 78.5 222C78.5 206.252 91.0442 193.5 106.5 193.5C121.956 193.5 134.5 206.252 134.5 222Z" fill="#424B54" stroke="#424B54"/>
<circle cx="110.5" cy="210.5" r="10" fill="white" stroke="#424B54"/>
<path d="M253.5 222C253.5 237.748 240.956 250.5 225.5 250.5C210.044 250.5 197.5 237.748 197.5 222C197.5 206.252 210.044 193.5 225.5 193.5C240.956 193.5 253.5 206.252 253.5 222Z" fill="#424B54" stroke="#424B54"/>
<circle cx="229.5" cy="210.5" r="10" fill="white" stroke="#424B54"/>
<path d="M165.5 258C154 258 158 248.5 149 250C140 251.5 145 266.5 145 266.5C147.5 272.5 152 277.5 159 280C167.815 283.148 173.15 281.734 179.5 277.5C184 274.5 186.195 269.379 188.5 264C191.5 257 188 250.5 184 250C175.5 250 177 258 165.5 258Z" fill="#424B54" stroke="#424B54"/>
<path d="M126.703 342.153C134.498 388.354 105.954 386.004 73.2136 382.089C40.4727 378.174 28 361.346 28 340.587C28 316.312 45.6304 305.349 76.3318 303C107.994 305.349 119.687 314.746 126.703 342.153Z" fill="#60AFFF"/>
<path d="M126.703 342.153C134.498 388.354 105.954 386.004 73.2136 382.089C40.4727 378.174 28 361.346 28 340.587C28 316.312 45.6304 305.349 76.3318 303C107.994 305.349 119.687 314.746 126.703 342.153Z" fill="#60AFFF"/>
<path d="M126.703 342.153C134.498 388.354 105.954 386.004 73.2136 382.089C40.4727 378.174 28 361.346 28 340.587C28 316.312 45.6304 305.349 76.3318 303C107.994 305.349 119.687 314.746 126.703 342.153Z" stroke="#424B54" stroke-width="16"/>
<path d="M205.297 342.153C197.502 388.354 226.046 386.004 258.786 382.089C291.527 378.174 304 361.346 304 340.587C304 316.312 286.37 305.349 255.668 303C224.006 305.349 212.313 314.746 205.297 342.153Z" fill="#60AFFF"/>
<path d="M205.297 342.153C197.502 388.354 226.046 386.004 258.786 382.089C291.527 378.174 304 361.346 304 340.587C304 316.312 286.37 305.349 255.668 303C224.006 305.349 212.313 314.746 205.297 342.153Z" fill="#60AFFF"/>
<path d="M205.297 342.153C197.502 388.354 226.046 386.004 258.786 382.089C291.527 378.174 304 361.346 304 340.587C304 316.312 286.37 305.349 255.668 303C224.006 305.349 212.313 314.746 205.297 342.153Z" stroke="#424B54" stroke-width="16"/>
<mask id="path-11-outside-1_1_43" maskUnits="userSpaceOnUse" x="194" y="0" width="155" height="146" fill="black">
<rect fill="white" x="194" width="155" height="146"/>
<path fill-rule="evenodd" clip-rule="evenodd" d="M239 12C220.775 12 206 26.7746 206 45V69.5L206 69.5C206 69.5 206 126.5 206.006 131.26C206.011 136.02 212 132 218.5 126.5L229 117L245.121 103H304C322.225 103 337 88.2254 337 70V45C337 26.7746 322.225 12 304 12H239Z"/>
</mask>
<path fill-rule="evenodd" clip-rule="evenodd" d="M239 12C220.775 12 206 26.7746 206 45V69.5L206 69.5C206 69.5 206 126.5 206.006 131.26C206.011 136.02 212 132 218.5 126.5L229 117L245.121 103H304C322.225 103 337 88.2254 337 70V45C337 26.7746 322.225 12 304 12H239Z" fill="white"/>
<path d="M206 69.5L198.8 79.1L218 93.5V69.5H206ZM206 69.5L213.2 59.9L194 45.5L194 69.5L206 69.5ZM206.006 131.26L218.006 131.246L206.006 131.26ZM218.5 126.5L226.251 135.661L226.403 135.532L226.551 135.398L218.5 126.5ZM229 117L221.132 107.94L221.04 108.02L220.949 108.102L229 117ZM245.121 103V91H240.638L237.253 93.9396L245.121 103ZM218 45C218 33.402 227.402 24 239 24V0C214.147 0 194 20.1472 194 45H218ZM218 69.5V45H194V69.5H218ZM198.8 79.1L198.8 79.1L213.2 59.9L213.2 59.9L198.8 79.1ZM218.006 131.246C218.003 128.875 218.001 113.446 218.001 98.5944C218 91.1721 218 83.8985 218 78.4804C218 75.7714 218 73.5263 218 71.9584C218 71.1745 218 70.5599 218 70.1413C218 69.9319 218 69.7716 218 69.6636C218 69.6096 218 69.5687 218 69.5413C218 69.5276 218 69.5173 218 69.5104C218 69.5069 218 69.5043 218 69.5026C218 69.5017 218 69.5011 218 69.5007C218 69.5002 218 69.5 206 69.5C194 69.5 194 69.5002 194 69.5007C194 69.5011 194 69.5017 194 69.5026C194 69.5043 194 69.5069 194 69.5104C194 69.5173 194 69.5276 194 69.5413C194 69.5688 194 69.6097 194 69.6637C194 69.7717 194 69.932 194 70.1413C194 70.56 194 71.1746 194 71.9586C194 73.5265 194 75.7717 194 78.4808C194 83.899 194 91.1729 194.001 98.5955C194.001 113.434 194.003 128.885 194.006 131.274L218.006 131.246ZM210.749 117.339C207.432 120.146 205.393 121.544 204.669 121.888C204.59 121.926 204.981 121.723 205.732 121.562C206.402 121.419 208.263 121.109 210.612 121.84C213.382 122.702 215.618 124.639 216.887 127.04C217.954 129.059 218.005 130.756 218.006 131.246L194.006 131.274C194.008 132.954 194.247 135.566 195.668 138.255C197.291 141.326 200.046 143.687 203.481 144.756C206.493 145.693 209.162 145.372 210.763 145.029C212.445 144.668 213.89 144.078 214.966 143.567C218.863 141.716 223.068 138.354 226.251 135.661L210.749 117.339ZM220.949 108.102L210.449 117.602L226.551 135.398L237.051 125.898L220.949 108.102ZM237.253 93.9396L221.132 107.94L236.868 126.06L252.989 112.06L237.253 93.9396ZM304 91H245.121V115H304V91ZM325 70C325 81.598 315.598 91 304 91V115C328.853 115 349 94.8528 349 70H325ZM325 45V70H349V45H325ZM304 24C315.598 24 325 33.402 325 45H349C349 20.1472 328.853 0 304 0V24ZM239 24H304V0H239V24Z" fill="#424B54" mask="url(#path-11-outside-1_1_43)"/>
<circle cx="273.5" cy="60" r="13" fill="#60AFFF"/>
<circle cx="241" cy="60" r="13" fill="#60AFFF"/>
<circle cx="306" cy="60" r="13" fill="#60AFFF"/>
</svg>
